# xmcd
#
# Track frame offsets: 
#        150
#        10978
#        31663
#        49527
#        67949
#        89934
#        110314
#        129397
#        144398
#        157162
#        184892
#
# Disc length: 2645 seconds
#
# Revision: 0
# Processed by: cddbd v1.5.2PL0 Copyright (c) Steve Scherf et al.
# Submitted via: ExactAudioCopy v0.99pb3
#
DISCID=900a530b
DTITLE=Terakaft - Bisimilla - the BKO sessions
DYEAR=2007
DGENRE=Blues
TTITLE0=Bismilla
TTITLE1=Tenale Chidjret
TTITLE2=Rastaman Aridal
TTITLE3=Manihadjan
TTITLE4=Ter Simawan
TTITLE5=Adounia
TTITLE6=Niha Tinahaghen
TTITLE7=Adounia Tanoukmam
TTITLE8=Imouhagh
TTITLE9=Ayet Idhes
TTITLE10=Imidiwan
EXTD=
EXTT0=
EXTT1=
EXTT2=
EXTT3=
EXTT4=
EXTT5=
EXTT6=
EXTT7=
EXTT8=
EXTT9=
EXTT10=
PLAYORDER=
